<?xml version="1.0" encoding="iso-8859-1"?>
<!-- Generator: Adobe Illustrator 19.0.0, SVG Export Plug-In . SVG Version: 6.00 Build 0)  -->
<svg version="1.1" id="Capa_1" xmlns="http://www.w3.org/2000/svg" xmlns:xlink="http://www.w3.org/1999/xlink" x="0px" y="0px"
	 viewBox="0 0 480.016 480.016" style="enable-background:new 0 0 480.016 480.016;" xml:space="preserve">
<g>
	<g>
		<path d="M442.84,175.528c22.936-2.547,39.464-23.205,36.917-46.141c-1.05-9.453-5.293-18.264-12.029-24.979l-16.408-16.4
			l26.344-26.344c3.123-3.124,3.123-8.188,0-11.312l-48-48c-3.124-3.123-8.188-3.123-11.312,0l-26.344,26.344l-16.4-16.4
			c-16.292-16.343-42.748-16.385-59.091-0.093c-6.734,6.713-10.977,15.522-12.029,24.973l-24.88-24.88
			c-16.505-16.254-43.062-16.051-59.316,0.454c-16.077,16.325-16.079,42.53-0.004,58.858l64.408,64.4L136.008,284.696l-64.4-64.4
			c-16.505-16.254-43.062-16.051-59.316,0.454c-16.077,16.325-16.079,42.531-0.004,58.858l24.888,24.88
			c-22.936,2.547-39.464,23.205-36.917,46.141c1.05,9.453,5.293,18.264,12.029,24.979l16.408,16.4L2.352,418.352
			c-3.123,3.124-3.123,8.188,0,11.312l48,48c3.124,3.123,8.188,3.123,11.312,0l26.344-26.344l16.4,16.4
			c16.292,16.343,42.748,16.385,59.091,0.093c6.734-6.713,10.977-15.522,12.029-24.973l24.88,24.88
			c16.505,16.254,43.062,16.051,59.316-0.455c16.077-16.325,16.078-42.53,0.004-58.857l-64.408-64.4L344.008,195.32l64.4,64.4
			c16.505,16.254,43.062,16.051,59.316-0.455c16.077-16.325,16.078-42.53,0.004-58.857L442.84,175.528z M424.008,19.32
			l36.688,36.688l-20.688,20.688L403.32,40.008L424.008,19.32z M327.608,23.608c10.129-10.129,26.551-10.129,36.68,0l92.12,92.112
			c4.881,4.855,7.617,11.46,7.6,18.344c0.005,14.324-11.603,25.94-25.927,25.945c-6.884,0.002-13.486-2.732-18.353-7.601
			l-46.056-46.056l-46.064-46.064C317.479,50.159,317.479,33.736,327.608,23.608z M56.008,460.696L19.32,424.008l20.688-20.688
			l36.688,36.688L56.008,460.696z M134.081,464.008c-6.884,0.002-13.486-2.732-18.353-7.601l-92.12-92.112
			c-10.131-10.129-10.133-26.553-0.004-36.684c10.129-10.131,26.553-10.133,36.684-0.004l46.056,46.056l46.064,46.064
			c4.881,4.851,7.618,11.454,7.6,18.336C160.013,452.388,148.405,464.004,134.081,464.008z M248.408,419.72
			c4.881,4.855,7.617,11.46,7.6,18.344c0.005,14.324-11.603,25.94-25.927,25.945c-6.884,0.002-13.486-2.732-18.353-7.601l-48-48
			l-46.056-46.056l-94.064-94.056c-10.131-10.129-10.133-26.553-0.004-36.684c10.129-10.131,26.553-10.133,36.684-0.004
			L248.408,419.72z M184.008,332.696l-36.688-36.688L296.008,147.32l36.688,36.688L184.008,332.696z M438.081,256.008
			c-6.884,0.002-13.486-2.732-18.353-7.601L231.608,60.296c-10.131-10.129-10.133-26.553-0.004-36.684
			c10.129-10.131,26.553-10.133,36.684-0.004l48,48l46.056,46.056l94.064,94.056c4.881,4.855,7.617,11.46,7.6,18.344
			C464.013,244.388,452.405,256.004,438.081,256.008z"/>
	</g>
</g>
<g>
</g>
<g>
</g>
<g>
</g>
<g>
</g>
<g>
</g>
<g>
</g>
<g>
</g>
<g>
</g>
<g>
</g>
<g>
</g>
<g>
</g>
<g>
</g>
<g>
</g>
<g>
</g>
<g>
</g>
</svg>
